<svg version="1.1" xmlns="http://www.w3.org/2000/svg" xmlns:xlink="http://www.w3.org/1999/xlink" role="img" width="197" height="90" viewbox="0 0 197 90"><title>deploy</title><desc>Generated by logo.svg, https://github.com/bubkoo/logo.svg</desc><path fill="#2b68a7" d="M12.01 70.99Q9.19 70.99 7.34 69.46Q5.48 67.92 4.62 65.26Q3.75 62.61 3.75 59.28Q3.75 56.27 4.55 52.98Q5.35 49.68 6.95 46.58Q8.55 43.47 10.86 40.94Q13.16 38.42 16.17 36.91Q19.18 35.41 22.82 35.41Q24.68 35.41 26.28 35.86Q27.88 36.30 29.16 37.01Q29.29 36.18 29.48 35.06Q29.67 33.94 29.80 33.36L30.44 30.29Q30.63 29.39 30.76 28.59Q30.89 27.79 30.89 27.41Q30.89 25.49 29.58 24.94Q28.26 24.40 26.41 24.40L25.90 24.40L26.47 21.71L38.25 21.71L30.82 56.59Q30.70 57.30 30.44 58.64Q30.18 59.98 30.02 61.39Q29.86 62.80 29.86 63.70Q29.86 66.96 31.98 66.96Q33 66.96 34.18 66.48Q35.37 66 36.58 65.30L37.74 67.15Q36.84 67.98 35.30 68.88Q33.77 69.78 32.04 70.38Q30.31 70.99 28.71 70.99Q26.41 70.99 25.06 69.58Q23.72 68.18 23.72 65.68Q23.72 64.85 23.88 63.57Q24.04 62.29 24.36 60.69L23.98 60.69Q21.74 65.62 18.76 68.30Q15.78 70.99 12.01 70.99M14.31 66.96Q15.98 66.96 17.74 65.68Q19.50 64.40 21.06 62.22Q22.63 60.05 23.85 57.36Q25.06 54.67 25.64 51.92L28.01 40.59Q27.30 39.44 25.96 38.86Q24.62 38.29 23.14 38.29Q20.58 38.29 18.54 39.73Q16.49 41.17 14.95 43.54Q13.42 45.90 12.36 48.72Q11.30 51.54 10.79 54.38Q10.28 57.23 10.28 59.54Q10.28 63.50 11.43 65.23Q12.58 66.96 14.31 66.96ZM53.29 70.99Q49.83 70.99 47.02 69.52Q44.20 68.05 42.50 65.14Q40.81 62.22 40.81 57.74Q40.81 54.22 42.02 50.32Q43.24 46.42 45.67 43.02Q48.10 39.63 51.66 37.52Q55.21 35.41 59.88 35.41Q63.91 35.41 66.15 37.36Q68.39 39.31 68.39 42.77Q68.39 46.16 65.99 49.07Q63.59 51.98 59.40 53.78Q55.21 55.57 49.83 55.57L47.59 55.57Q47.53 56.27 47.50 56.94Q47.46 57.62 47.46 58.26Q47.46 62.42 49.26 64.69Q51.05 66.96 54.50 66.96Q57.58 66.96 59.98 65.49Q62.38 64.02 63.72 62.35Q64.36 62.80 64.36 63.95Q64.36 65.36 63.18 66.99Q61.99 68.62 59.56 69.81Q57.13 70.99 53.29 70.99M48.17 52.62L48.81 52.62Q52.52 52.62 55.46 51.38Q58.41 50.13 60.10 47.92Q61.80 45.71 61.80 42.77Q61.80 38.48 58.09 38.48Q56.23 38.48 54.66 39.73Q53.10 40.98 51.82 43.06Q50.54 45.14 49.61 47.63Q48.68 50.13 48.17 52.62ZM69.16 85.71L77.67 45.14Q77.93 43.86 78.09 42.96Q78.25 42.06 78.25 41.74Q78.25 39.82 76.94 39.28Q75.62 38.74 73.77 38.74L73.26 38.74L73.83 36.05L85.16 36.05L83.62 44.56L83.94 44.56Q85.22 42.06 86.86 39.98Q88.49 37.90 90.63 36.66Q92.78 35.41 95.66 35.41Q99.56 35.41 101.67 38.38Q103.78 41.36 103.78 46.99Q103.78 49.74 103.02 52.98Q102.25 56.21 100.74 59.41Q99.24 62.61 96.97 65.23Q94.70 67.86 91.62 69.42Q88.55 70.99 84.71 70.99Q82.86 70.99 81.26 70.61Q79.66 70.22 78.44 69.52Q78.44 69.52 78.31 70.51Q78.18 71.50 77.93 72.59L77.03 76.50Q76.90 76.88 76.68 78.13Q76.46 79.38 76.46 80.08Q76.46 82 77.77 82.51Q79.08 83.02 80.94 83.02L81.77 83.02L81.19 85.71L69.16 85.71M84.52 68.11Q86.95 68.11 88.97 66.70Q90.98 65.30 92.52 62.93Q94.06 60.56 95.11 57.78Q96.17 54.99 96.71 52.14Q97.26 49.30 97.26 46.93Q97.26 45.07 96.90 43.34Q96.55 41.62 95.69 40.53Q94.82 39.44 93.22 39.44Q91.37 39.44 89.58 40.85Q87.78 42.26 86.25 44.46Q84.71 46.67 83.62 49.10Q82.54 51.54 82.09 53.65L79.46 65.81Q80.04 66.51 81.38 67.31Q82.73 68.11 84.52 68.11ZM116.52 70.99Q113.96 70.99 112.58 69.20Q111.21 67.41 111.21 64.91Q111.21 63.57 111.46 61.71Q111.72 59.86 112.04 58Q112.36 56.14 112.62 54.86L117.86 30.29Q118.06 29.39 118.15 28.56Q118.25 27.73 118.25 27.41Q118.25 25.49 116.94 24.94Q115.62 24.40 113.77 24.40L113 24.40L113.58 21.71L125.67 21.71L118.25 56.59Q118.06 57.30 117.83 58.64Q117.61 59.98 117.42 61.39Q117.22 62.80 117.22 63.70Q117.22 66.96 119.34 66.96Q120.36 66.96 121.54 66.48Q122.73 66 123.94 65.30L125.10 67.15Q123.69 68.43 121.32 69.71Q118.95 70.99 116.52 70.99ZM141.03 70.99Q135.59 70.99 132.17 67.70Q128.74 64.40 128.74 57.74Q128.74 54.22 129.90 50.32Q131.05 46.42 133.42 43.02Q135.78 39.63 139.37 37.52Q142.95 35.41 147.82 35.41Q151.21 35.41 153.96 36.75Q156.71 38.10 158.34 41.04Q159.98 43.98 159.98 48.66Q159.98 51.41 159.27 54.45Q158.57 57.49 157.10 60.43Q155.62 63.38 153.38 65.74Q151.14 68.11 148.04 69.55Q144.94 70.99 141.03 70.99M141.74 67.73Q144.87 67.73 147.08 65.71Q149.29 63.70 150.66 60.53Q152.04 57.36 152.68 53.90Q153.32 50.45 153.32 47.57Q153.32 42.77 151.66 40.72Q149.99 38.67 147.05 38.67Q144.55 38.67 142.63 40.02Q140.71 41.36 139.34 43.57Q137.96 45.78 137.10 48.46Q136.23 51.15 135.82 53.87Q135.40 56.59 135.40 58.90Q135.40 63.76 137.13 65.74Q138.86 67.73 141.74 67.73ZM157.10 85.71Q153.70 85.71 151.08 84.56L152.04 81.36Q152.81 81.62 153.93 81.84Q155.05 82.06 157.03 82.06Q160.17 82.06 162.82 80.94Q165.48 79.82 167.72 78.06Q169.96 76.30 171.78 74.29Q173.61 72.27 175.02 70.42L166.57 42.13Q165.99 40.21 165 39.47Q164.01 38.74 162.15 38.74L161.51 38.74L162.02 36.05L171.37 36.05L176.36 53.33Q176.81 54.99 177.42 57.30Q178.02 59.60 178.50 61.71Q178.98 63.82 179.05 64.91L179.24 64.91Q181.67 61.26 183.62 57.46Q185.58 53.65 186.73 50.10Q187.88 46.54 187.88 43.66Q187.88 42.32 187.21 41.26Q186.54 40.21 184.74 40.21Q184.74 37.90 186.06 36.69Q187.37 35.47 188.90 35.47Q190.89 35.47 192.07 36.82Q193.26 38.16 193.26 40.85Q193.26 45.84 190.18 52.37Q187.11 58.90 181.99 66.70Q178.86 71.57 176.20 75.15Q173.54 78.74 170.86 81.07Q168.17 83.41 164.87 84.56Q161.58 85.71 157.10 85.71Z"></path></svg>