<svg version="1.1" xmlns="http://www.w3.org/2000/svg" xmlns:xlink="http://www.w3.org/1999/xlink" role="img" width="450" height="70" viewbox="0 0 450 70"><title>ModelFlow</title><desc>Generated by logo.svg, https://github.com/bubkoo/logo.svg</desc><path fill="#2b68a7" d="M49 58L49 14L29 14L29 26L25 26L25 14L5 14L5 58L17 58L17 42L21 42L21 58L33 58L33 42L37 42L37 58L49 58M1 62L1 10L53 10L53 62L1 62ZM77 46L77 26L81 26L81 46L77 46M97 58L97 14L61 14L61 58L97 58M57 62L57 10L101 10L101 62L57 62ZM141 58L141 54L145 54L145 58L141 58M125 46L125 26L129 26L129 46L125 46M145 54L145 18L149 18L149 54L145 54M141 18L141 14L145 14L145 18L141 18M105 62L105 10L141 10L141 14L109 14L109 58L141 58L141 62L105 62ZM193 58L193 46L177 46L177 42L193 42L193 30L177 30L177 26L193 26L193 14L157 14L157 58L193 58M153 62L153 10L197 10L197 62L153 62ZM241 58L241 46L221 46L221 14L205 14L205 58L241 58M201 62L201 10L225 10L225 42L245 42L245 62L201 62ZM269 58L269 42L289 42L289 30L269 30L269 26L289 26L289 14L253 14L253 58L269 58M249 62L249 10L293 10L293 46L273 46L273 62L249 62ZM337 58L337 46L317 46L317 14L301 14L301 58L337 58M297 62L297 10L321 10L321 42L341 42L341 62L297 62ZM365 46L365 26L369 26L369 46L365 46M385 58L385 14L349 14L349 58L385 58M345 62L345 10L389 10L389 62L345 62ZM441 58L441 14L429 14L429 30L425 30L425 14L413 14L413 30L409 30L409 14L397 14L397 58L417 58L417 46L421 46L421 58L441 58M393 62L393 10L445 10L445 62L393 62Z"></path></svg>