<svg version="1.1" xmlns="http://www.w3.org/2000/svg" xmlns:xlink="http://www.w3.org/1999/xlink" role="img" width="151" height="90" viewbox="0 0 151 90"><title>onnx</title><desc>Generated by logo.svg, https://github.com/bubkoo/logo.svg</desc><path fill="#2b68a7" d="M16.04 70.99Q10.60 70.99 7.18 67.70Q3.75 64.40 3.75 57.74Q3.75 54.22 4.90 50.32Q6.06 46.42 8.42 43.02Q10.79 39.63 14.38 37.52Q17.96 35.41 22.82 35.41Q26.22 35.41 28.97 36.75Q31.72 38.10 33.35 41.04Q34.98 43.98 34.98 48.66Q34.98 51.41 34.28 54.45Q33.58 57.49 32.10 60.43Q30.63 63.38 28.39 65.74Q26.15 68.11 23.05 69.55Q19.94 70.99 16.04 70.99M16.74 67.73Q19.88 67.73 22.09 65.71Q24.30 63.70 25.67 60.53Q27.05 57.36 27.69 53.90Q28.33 50.45 28.33 47.57Q28.33 42.77 26.66 40.72Q25 38.67 22.06 38.67Q19.56 38.67 17.64 40.02Q15.72 41.36 14.34 43.57Q12.97 45.78 12.10 48.46Q11.24 51.15 10.82 53.87Q10.41 56.59 10.41 58.90Q10.41 63.76 12.14 65.74Q13.86 67.73 16.74 67.73ZM67.18 70.99Q64.36 70.99 62.86 69.20Q61.35 67.41 61.35 64.59Q61.35 61.65 62.57 55.95L63.66 50.96Q63.85 50.13 64.17 48.75Q64.49 47.38 64.74 45.94Q65 44.50 65 43.34Q65 42.06 64.46 40.82Q63.91 39.57 62.06 39.57Q60.01 39.57 58.06 41.04Q56.10 42.51 54.41 44.82Q52.71 47.12 51.53 49.58Q50.34 52.05 49.96 53.97L46.50 70.35L40.55 70.35L45.93 44.62Q46.12 43.73 46.22 42.90Q46.31 42.06 46.31 41.74Q46.31 39.82 44.97 39.28Q43.62 38.74 41.83 38.74L41.32 38.74L41.90 36.05L53.74 36.05L52.01 44.11L52.65 44.11Q55.27 39.89 57.99 37.68Q60.71 35.47 64.30 35.47Q68.07 35.47 69.61 37.62Q71.14 39.76 71.14 42.58Q71.14 44.18 70.73 46.06Q70.31 47.95 69.99 49.62L68.33 57.17Q67.94 58.96 67.72 60.69Q67.50 62.42 67.50 63.89Q67.50 66.96 69.74 66.96Q71.59 66.96 73.83 65.49L74.98 67.34Q73.45 68.62 71.56 69.81Q69.67 70.99 67.18 70.99ZM105.51 70.99Q102.70 70.99 101.19 69.20Q99.69 67.41 99.69 64.59Q99.69 61.65 100.90 55.95L101.99 50.96Q102.18 50.13 102.50 48.75Q102.82 47.38 103.08 45.94Q103.34 44.50 103.34 43.34Q103.34 42.06 102.79 40.82Q102.25 39.57 100.39 39.57Q98.34 39.57 96.39 41.04Q94.44 42.51 92.74 44.82Q91.05 47.12 89.86 49.58Q88.68 52.05 88.30 53.97L84.84 70.35L78.89 70.35L84.26 44.62Q84.46 43.73 84.55 42.90Q84.65 42.06 84.65 41.74Q84.65 39.82 83.30 39.28Q81.96 38.74 80.17 38.74L79.66 38.74L80.23 36.05L92.07 36.05L90.34 44.11L90.98 44.11Q93.61 39.89 96.33 37.68Q99.05 35.47 102.63 35.47Q106.41 35.47 107.94 37.62Q109.48 39.76 109.48 42.58Q109.48 44.18 109.06 46.06Q108.65 47.95 108.33 49.62L106.66 57.17Q106.28 58.96 106.06 60.69Q105.83 62.42 105.83 63.89Q105.83 66.96 108.07 66.96Q109.93 66.96 112.17 65.49L113.32 67.34Q111.78 68.62 109.90 69.81Q108.01 70.99 105.51 70.99ZM113.13 70.35L113.83 67.66L114.66 67.66Q115.88 67.66 116.81 67.34Q117.74 67.02 118.76 66.06Q119.78 65.10 121.32 63.25L129.51 53.33L125.35 43.34Q124.20 40.59 123.40 39.66Q122.60 38.74 120.74 38.74L119.91 38.74L120.42 36.05L128.94 36.05L133.80 48.98L142.31 36.05L150.18 36.05L149.48 38.74L148.65 38.74Q147.43 38.74 146.47 39.12Q145.51 39.50 144.49 40.50Q143.46 41.49 141.99 43.34L135.27 51.98L139.69 63.06Q140.71 65.87 141.58 66.77Q142.44 67.66 144.30 67.66L145.13 67.66L144.62 70.35L136.04 70.35L130.86 56.27L121.26 70.35L113.13 70.35Z"></path></svg>